# xmcd CD database file
#
# Track frame offsets:
#	180
#	25590
#	46803
#	76834
#	98379
#	116626
#	150857
#	183750
#	208608
#	238390
#	258792
#
# Disc length: 3790 seconds
#
# Revision: 0
# Processed by: cddbd v1.5.2PL0 Copyright (c) Steve Scherf et al.
# Submitted via: CDex 1.70beta2
#
DISCID=730ecc0b
DTITLE=Thilo Kreitmeier and Group - Soul Call
DYEAR=1999
DGENRE=Jazz
TTITLE0=Sneakin' in the Back
TTITLE1=Soul Call
TTITLE2=Besame Mucho
TTITLE3=Cubano Chant
TTITLE4=Yeah, Yeah, Yeah
TTITLE5=Smoke Get's in Your Eyes
TTITLE6=Soul Meeting
TTITLE7=Way Back Home
TTITLE8=Comin' Home Baby
TTITLE9=Cookie Man
TTITLE10=Movin' Out
EXTD=YEAR: 1999
EXTT0=
EXTT1=
EXTT2=
EXTT3=
EXTT4=
EXTT5=
EXTT6=
EXTT7=
EXTT8=
EXTT9=
EXTT10=
PLAYORDER=
